<svg xmlns="http://www.w3.org/2000/svg" viewBox="0 0 160 40" width="160" height="40">
  <!-- Logo Icon: W super dinamica compatta -->
  <g transform="translate(2,2)">
    <!-- Paper/Document background -->
    <rect x="2" y="2" width="34" height="34" rx="3" fill="#e2e8f0" opacity="0.4"/>
    <rect x="1" y="1" width="34" height="34" rx="3" fill="#f8fafc" stroke="#cbd5e1" stroke-width="1.5"/>
    
    <!-- W super dinamica - versione compatta -->
    <g transform="translate(3, 8)">
      <!-- Prima discesa -->
      <path d="
        M 0 0
        C 0.5 2, 1 4, 2 7
        C 2.5 9, 3 11, 4 13
      " 
      fill="none" 
      stroke="#6366f1" 
      stroke-width="3.5" 
      stroke-linecap="round" 
      stroke-linejoin="round"/>
      
      <!-- V centrale -->
      <path d="
        M 4 13
        C 6 9, 9 5, 11 2
        C 12 1, 13 0.5, 14 0
      " 
      fill="none" 
      stroke="#6366f1" 
      stroke-width="3.5" 
      stroke-linecap="round" 
      stroke-linejoin="round"/>
      
      <!-- Seconda discesa -->
      <path d="
        M 14 0
        C 15 3, 16 6, 17 9
        C 17.5 11, 18 12.5, 19 15
      " 
      fill="none" 
      stroke="#6366f1" 
      stroke-width="3.5" 
      stroke-linecap="round" 
      stroke-linejoin="round"/>
      
      <!-- BAFFO lungo -->
      <path d="
        M 19 15
        C 21 12, 23 10, 25 8
        C 26 7, 27 6, 28 5.5
      " 
      fill="none" 
      stroke="#6366f1" 
      stroke-width="3" 
      stroke-linecap="round"
      opacity="0.95"/>
      
      <!-- Scia penna -->
      <path d="
        M 28 5.5
        C 30 4.5, 32 4, 34 3.5
      " 
      fill="none" 
      stroke="#6366f1" 
      stroke-width="2" 
      stroke-linecap="round"
      opacity="0.6"/>
      
      <!-- Scia finale -->
      <path d="
        M 34 3.5
        C 35 3, 36 2.8, 37 2.5
      " 
      fill="none" 
      stroke="#6366f1" 
      stroke-width="1.2" 
      stroke-linecap="round"
      opacity="0.35"/>
    </g>
    
    <circle cx="3" cy="8" r="1.3" fill="#6366f1" opacity="0.8"/>
  </g>
  
  <!-- Compact text -->
  <text x="44" y="16" font-family="'Inter', 'Arial', sans-serif" font-size="13" font-weight="700" fill="#0f172a" letter-spacing="-0.3">
    Web
  </text>
  <text x="44" y="30" font-family="'Inter', 'Arial', sans-serif" font-size="11" font-weight="600" fill="#6366f1" letter-spacing="0.3">
    DEMOCRACY
  </text>
</svg>
